<?xml version="1.0" standalone="no"?>
<svg version="1.0" xmlns="http://www.w3.org/2000/svg"
 width="100%" height="20pt" viewBox="0 0 300.000000 19.000000"
 preserveAspectRatio="xMidYMid meet">
<g transform="translate(0.000000,19.000000) scale(0.100000,-0.100000)"
fill="#000000" stroke="none">
<path d="M1397 143 c-13 -12 -8 -55 6 -50 6 2 11 12 11 21 -2 18 11 22 21 6
22 -35 -37 -80 -105 -80 -33 0 -48 7 -84 40 -41 38 -76 52 -76 30 0 -5 6 -10
14 -10 7 0 20 -8 27 -17 13 -15 12 -16 -6 -8 -138 58 -237 69 -381 39 -66 -14
-129 -16 -392 -12 -171 3 -312 2 -312 -2 0 -8 302 -20 495 -20 121 0 204 8
246 25 13 5 15 1 12 -18 -5 -27 20 -43 51 -31 17 7 22 34 6 34 -5 0 -10 -4
-10 -10 0 -5 -9 -10 -20 -10 -30 0 -24 29 8 41 48 19 152 4 264 -40 128 -49
149 -55 192 -47 67 13 112 91 67 116 -23 12 -26 12 -34 3z"/>
<path d="M1537 138 c-44 -24 2 -101 69 -114 43 -8 65 -2 194 48 92 36 115 42
188 42 63 1 85 -3 92 -14 15 -23 12 -30 -10 -30 -11 0 -20 5 -20 10 0 6 -4 10
-10 10 -19 0 -10 -29 10 -35 25 -8 53 13 47 35 -4 14 2 15 57 3 88 -18 696
-12 696 7 0 4 -141 5 -312 2 -263 -4 -326 -2 -392 12 -144 30 -243 19 -381
-39 -18 -8 -19 -7 -6 8 7 9 20 17 27 17 8 0 14 5 14 10 0 22 -35 8 -76 -30
-36 -33 -51 -40 -84 -40 -68 0 -127 45 -105 80 11 18 23 11 18 -10 -4 -14 0
-20 11 -20 10 0 16 9 16 24 0 28 -19 38 -43 24z"/>
<path d="M1474 102 c-4 -18 -20 -43 -36 -57 -16 -14 -26 -25 -21 -26 45 -4 73
-3 73 4 0 4 9 3 19 -3 11 -5 26 -7 35 -4 12 5 9 11 -14 31 -17 14 -30 32 -30
41 0 10 -5 24 -10 32 -7 12 -11 8 -16 -18z"/>
</g>
</svg>
